{"asset":{"generator":"glTF-Transform v4.0.2","version":"2.0"},"accessors":[{"type":"VEC3","componentType":5126,"count":824,"max":[0.4078570008277893,1,0.08454740047454834],"min":[-0.4078570008277893,-1,-0.08454740047454834],"bufferView":0,"byteOffset":0},{"type":"VEC3","componentType":5126,"count":824,"bufferView":0,"byteOffset":12},{"type":"VEC2","componentType":5126,"count":824,"bufferView":0,"byteOffset":24},{"type":"SCALAR","componentType":5123,"count":2880,"bufferView":1,"byteOffset":0},{"type":"SCALAR","componentType":5123,"count":2880,"bufferView":1,"byteOffset":5760},{"type":"SCALAR","componentType":5125,"count":405504,"bufferView":1,"byteOffset":11520},{"type":"SCALAR","componentType":5123,"count":24336,"bufferView":1,"byteOffset":1633536},{"type":"SCALAR","componentType":5123,"count":54957,"bufferView":1,"byteOffset":1682208},{"type":"SCALAR","componentType":5123,"count":7716,"bufferView":1,"byteOffset":1792124},{"type":"SCALAR","componentType":5123,"count":6036,"bufferView":1,"byteOffset":1807556},{"type":"SCALAR","componentType":5123,"count":6120,"bufferView":1,"byteOffset":1819628},{"type":"SCALAR","componentType":5123,"count":1548,"bufferView":1,"byteOffset":1831868},{"type":"SCALAR","componentType":5123,"count":85143,"bufferView":1,"byteOffset":1834964},{"type":"VEC3","componentType":5126,"count":882,"max":[0.4078570008277893,1,0.08454740047454834],"min":[-0.4078570008277893,-1,-0.08454740047454834],"bufferView":2,"byteOffset":0},{"type":"VEC3","componentType":5126,"count":882,"bufferView":2,"byteOffset":12},{"type":"VEC2","componentType":5126,"count":882,"bufferView":2,"byteOffset":24},{"type":"VEC3","componentType":5126,"count":882,"max":[0.4078570008277893,1,0.08454740047454834],"min":[-0.4078570008277893,-1,-0.08454740047454834],"bufferView":3,"byteOffset":0},{"type":"VEC3","componentType":5126,"count":882,"bufferView":3,"byteOffset":12},{"type":"VEC2","componentType":5126,"count":882,"bufferView":3,"byteOffset":24},{"type":"VEC3","componentType":5126,"count":882,"max":[0.4078570008277893,1,0.08454740047454834],"min":[-0.4078570008277893,-1,-0.08454740047454834],"bufferView":4,"byteOffset":0},{"type":"VEC3","componentType":5126,"count":882,"bufferView":4,"byteOffset":12},{"type":"VEC2","componentType":5126,"count":882,"bufferView":4,"byteOffset":24},{"type":"VEC3","componentType":5126,"count":882,"max":[0.4078570008277893,1,0.08454740047454834],"min":[-0.4078570008277893,-1,-0.08454740047454834],"bufferView":5,"byteOffset":0},{"type":"VEC3","componentType":5126,"count":882,"bufferView":5,"byteOffset":12},{"type":"VEC2","componentType":5126,"count":882,"bufferView":5,"byteOffset":24},{"type":"VEC3","componentType":5126,"count":882,"max":[0.4078570008277893,1,0.08454740047454834],"min":[-0.4078570008277893,-1,-0.08454740047454834],"bufferView":6,"byteOffset":0},{"type":"VEC3","componentType":5126,"count":882,"bufferView":6,"byteOffset":12},{"type":"VEC2","componentType":5126,"count":882,"bufferView":6,"byteOffset":24},{"type":"VEC3","componentType":5126,"count":882,"max":[0.4078570008277893,1,0.08454740047454834],"min":[-0.4078570008277893,-1,-0.08454740047454834],"bufferView":7,"byteOffset":0},{"type":"VEC3","componentType":5126,"count":882,"bufferView":7,"byteOffset":12},{"type":"VEC2","componentType":5126,"count":882,"bufferView":7,"byteOffset":24},{"type":"VEC3","componentType":5126,"count":882,"max":[0.4078570008277893,1,0.08454740047454834],"min":[-0.4078570008277893,-1,-0.08454740047454834],"bufferView":8,"byteOffset":0},{"type":"VEC3","componentType":5126,"count":882,"bufferView":8,"byteOffset":12},{"type":"VEC2","componentType":5126,"count":882,"bufferView":8,"byteOffset":24},{"type":"VEC3","componentType":5126,"count":82747,"max":[0.06594989448785782,0.09598395973443985,0.059070177376270294],"min":[-0.05196515470743179,-0.09714210033416748,-0.0761476531624794],"bufferView":9,"byteOffset":0},{"type":"VEC3","componentType":5126,"count":82747,"bufferView":9,"byteOffset":12},{"type":"VEC2","componentType":5126,"count":82747,"bufferView":9,"byteOffset":24},{"type":"VEC3","componentType":5126,"count":82747,"max":[0.003022819757461548,0.005119584500789642,0.002730410546064377],"min":[-0.0025892145931720734,-0.004072025418281555,-0.003665044903755188],"bufferView":10,"byteOffset":0},{"type":"VEC3","componentType":5126,"count":82747,"bufferView":10,"byteOffset":12},{"type":"VEC3","componentType":5126,"count":4579,"max":[0.2452327013015747,0.3687124252319336,0.24684348702430725],"min":[-0.2053319811820984,0.1101413145661354,-0.030517658218741417],"bufferView":11,"byteOffset":0},{"type":"VEC3","componentType":5126,"count":4579,"bufferView":11,"byteOffset":12},{"type":"VEC2","componentType":5126,"count":4579,"bufferView":11,"byteOffset":24},{"type":"VEC4","componentType":5123,"count":4579,"bufferView":11,"byteOffset":32},{"type":"VEC4","componentType":5126,"count":4579,"bufferView":11,"byteOffset":40},{"type":"MAT4","componentType":5126,"count":36,"bufferView":12,"byteOffset":0},{"type":"VEC3","componentType":5126,"count":10870,"max":[0.2699277997016907,0.907278835773468,0.09303412586450577],"min":[-0.27120980620384216,0.4283074140548706,-0.13979904353618622],"bufferView":13,"byteOffset":0},{"type":"VEC3","componentType":5126,"count":10870,"bufferView":13,"byteOffset":12},{"type":"VEC2","componentType":5126,"count":10870,"bufferView":13,"byteOffset":24},{"type":"VEC4","componentType":5123,"count":10870,"bufferView":13,"byteOffset":32},{"type":"VEC4","componentType":5126,"count":10870,"bufferView":13,"byteOffset":40},{"type":"VEC3","componentType":5126,"count":1368,"max":[0.05562785267829895,0.7217036485671997,0.0595901720225811],"min":[-0.05672852694988251,0.6749998927116394,0.010931859724223614],"bufferView":14,"byteOffset":0},{"type":"VEC3","componentType":5126,"count":1368,"bufferView":14,"byteOffset":12},{"type":"VEC2","componentType":5126,"count":1368,"bufferView":14,"byteOffset":24},{"type":"VEC4","componentType":5123,"count":1368,"bufferView":14,"byteOffset":32},{"type":"VEC4","componentType":5126,"count":1368,"bufferView":14,"byteOffset":40},{"type":"VEC3","componentType":5126,"count":1084,"max":[0.16213928163051605,0.7794257998466492,0.06696714460849762],"min":[-0.17509473860263824,0.34271544218063354,-0.13457249104976654],"bufferView":15,"byteOffset":0},{"type":"VEC3","componentType":5126,"count":1084,"bufferView":15,"byteOffset":12},{"type":"VEC2","componentType":5126,"count":1084,"bufferView":15,"byteOffset":24},{"type":"VEC4","componentType":5123,"count":1084,"bufferView":15,"byteOffset":32},{"type":"VEC4","componentType":5126,"count":1084,"bufferView":15,"byteOffset":40},{"type":"VEC3","componentType":5126,"count":1076,"max":[0.04502803459763527,0.712209939956665,0.04457348585128784],"min":[-0.04612871631979942,0.6804466843605042,0.019709387794137],"bufferView":16,"byteOffset":0},{"type":"VEC3","componentType":5126,"count":1076,"bufferView":16,"byteOffset":12},{"type":"VEC2","componentType":5126,"count":1076,"bufferView":16,"byteOffset":24},{"type":"VEC4","componentType":5123,"count":1076,"bufferView":16,"byteOffset":32},{"type":"VEC4","componentType":5126,"count":1076,"bufferView":16,"byteOffset":40},{"type":"VEC3","componentType":5126,"count":290,"max":[0.1545713245868683,0.49203482270240784,0.059282902628183365],"min":[-0.13682091236114502,0.2916437089443207,-0.01042683981359005],"bufferView":17,"byteOffset":0},{"type":"VEC3","componentType":5126,"count":290,"bufferView":17,"byteOffset":12},{"type":"VEC2","componentType":5126,"count":290,"bufferView":17,"byteOffset":24},{"type":"VEC4","componentType":5123,"count":290,"bufferView":17,"byteOffset":32},{"type":"VEC4","componentType":5126,"count":290,"bufferView":17,"byteOffset":40},{"type":"VEC3","componentType":5126,"count":14809,"max":[0.32440701127052307,0.5132759809494019,0.3358418941497803],"min":[-0.3546519875526428,-0.8635990023612976,-0.25153210759162903],"bufferView":18,"byteOffset":0},{"type":"VEC3","componentType":5126,"count":14809,"bufferView":18,"byteOffset":12},{"type":"VEC2","componentType":5126,"count":14809,"bufferView":18,"byteOffset":24},{"type":"VEC4","componentType":5123,"count":14809,"bufferView":18,"byteOffset":32},{"type":"VEC4","componentType":5126,"count":14809,"bufferView":18,"byteOffset":40},{"type":"SCALAR","componentType":5126,"count":86,"max":[3.5416667461395264],"min":[0],"bufferView":19,"byteOffset":0},{"type":"SCALAR","componentType":5126,"count":86,"bufferView":19,"byteOffset":344},{"type":"SCALAR","componentType":5126,"count":109,"max":[4.583333492279053],"min":[0.0833333358168602],"bufferView":19,"byteOffset":688},{"type":"VEC3","componentType":5126,"count":109,"bufferView":19,"byteOffset":1124},{"type":"VEC4","componentType":5126,"count":109,"bufferView":19,"byteOffset":2432},{"type":"VEC3","componentType":5126,"count":109,"bufferView":19,"byteOffset":4176},{"type":"VEC3","componentType":5126,"count":109,"bufferView":19,"byteOffset":5484},{"type":"VEC4","componentType":5126,"count":109,"bufferView":19,"byteOffset":6792},{"type":"VEC3","componentType":5126,"count":109,"bufferView":19,"byteOffset":8536},{"type":"VEC3","componentType":5126,"count":109,"bufferView":19,"byteOffset":9844},{"type":"VEC4","componentType":5126,"count":109,"bufferView":19,"byteOffset":11152},{"type":"VEC3","componentType":5126,"count":109,"bufferView":19,"byteOffset":12896},{"type":"VEC3","componentType":5126,"count":109,"bufferView":19,"byteOffset":14204},{"type":"VEC4","componentType":5126,"count":109,"bufferView":19,"byteOffset":15512},{"type":"VEC3","componentType":5126,"count":109,"bufferView":19,"byteOffset":17256},{"type":"VEC3","componentType":5126,"count":109,"bufferView":19,"byteOffset":18564},{"type":"VEC4","componentType":5126,"count":109,"bufferView":19,"byteOffset":19872},{"type":"VEC3","componentType":5126,"count":109,"bufferView":19,"byteOffset":21616},{"type":"VEC3","componentType":5126,"count":109,"bufferView":19,"byteOffset":22924},{"type":"VEC4","componentType":5126,"count":109,"bufferView":19,"byteOffset":24232},{"type":"VEC3","componentType":5126,"count":109,"bufferView":19,"byteOffset":25976},{"type":"VEC3","componentType":5126,"count":109,"bufferView":19,"byteOffset":27284},{"type":"VEC4","componentType":5126,"count":109,"bufferView":19,"byteOffset":28592},{"type":"VEC3","componentType":5126,"count":109,"bufferView":19,"byteOffset":30336},{"type":"VEC3","componentType":5126,"count":109,"bufferView":19,"byteOffset":31644},{"type":"VEC4","componentType":5126,"count":109,"bufferView":19,"byteOffset":32952},{"type":"VEC3","componentType":5126,"count":109,"bufferView":19,"byteOffset":34696},{"type":"VEC3","componentType":5126,"count":109,"bufferView":19,"byteOffset":36004},{"type":"VEC4","componentType":5126,"count":109,"bufferView":19,"byteOffset":37312},{"type":"VEC3","componentType":5126,"count":109,"bufferView":19,"byteOffset":39056},{"type":"VEC3","componentType":5126,"count":109,"bufferView":19,"byteOffset":40364},{"type":"VEC4","componentType":5126,"count":109,"bufferView":19,"byteOffset":41672},{"type":"VEC3","componentType":5126,"count":109,"bufferView":19,"byteOffset":43416},{"type":"VEC3","componentType":5126,"count":109,"bufferView":19,"byteOffset":44724},{"type":"VEC4","componentType":5126,"count":109,"bufferView":19,"byteOffset":46032},{"type":"VEC3","componentType":5126,"count":109,"bufferView":19,"byteOffset":47776},{"type":"VEC3","componentType":5126,"count":109,"bufferView":19,"byteOffset":49084},{"type":"VEC4","componentType":5126,"count":109,"bufferView":19,"byteOffset":50392},{"type":"VEC3","componentType":5126,"count":109,"bufferView":19,"byteOffset":52136},{"type":"VEC3","componentType":5126,"count":109,"bufferView":19,"byteOffset":53444},{"type":"VEC4","componentType":5126,"count":109,"bufferView":19,"byteOffset":54752},{"type":"VEC3","componentType":5126,"count":109,"bufferView":19,"byteOffset":56496},{"type":"VEC3","componentType":5126,"count":109,"bufferView":19,"byteOffset":57804},{"type":"VEC4","componentType":5126,"count":109,"bufferView":19,"byteOffset":59112},{"type":"VEC3","componentType":5126,"count":109,"bufferView":19,"byteOffset":60856},{"type":"VEC3","componentType":5126,"count":109,"bufferView":19,"byteOffset":62164},{"type":"VEC4","componentType":5126,"count":109,"bufferView":19,"byteOffset":63472},{"type":"VEC3","componentType":5126,"count":109,"bufferView":19,"byteOffset":65216},{"type":"VEC3","componentType":5126,"count":109,"bufferView":19,"byteOffset":66524},{"type":"VEC4","componentType":5126,"count":109,"bufferView":19,"byteOffset":67832},{"type":"VEC3","componentType":5126,"count":109,"bufferView":19,"byteOffset":69576},{"type":"VEC3","componentType":5126,"count":109,"bufferView":19,"byteOffset":70884},{"type":"VEC4","componentType":5126,"count":109,"bufferView":19,"byteOffset":72192},{"type":"VEC3","componentType":5126,"count":109,"bufferView":19,"byteOffset":73936},{"type":"VEC3","componentType":5126,"count":109,"bufferView":19,"byteOffset":75244},{"type":"VEC4","componentType":5126,"count":109,"bufferView":19,"byteOffset":76552},{"type":"VEC3","componentType":5126,"count":109,"bufferView":19,"byteOffset":78296},{"type":"VEC3","componentType":5126,"count":109,"bufferView":19,"byteOffset":79604},{"type":"VEC4","componentType":5126,"count":109,"bufferView":19,"byteOffset":80912},{"type":"VEC3","componentType":5126,"count":109,"bufferView":19,"byteOffset":82656},{"type":"VEC3","componentType":5126,"count":109,"bufferView":19,"byteOffset":83964},{"type":"VEC4","componentType":5126,"count":109,"bufferView":19,"byteOffset":85272},{"type":"VEC3","componentType":5126,"count":109,"bufferView":19,"byteOffset":87016},{"type":"VEC3","componentType":5126,"count":109,"bufferView":19,"byteOffset":88324},{"type":"VEC4","componentType":5126,"count":109,"bufferView":19,"byteOffset":89632},{"type":"VEC3","componentType":5126,"count":109,"bufferView":19,"byteOffset":91376},{"type":"VEC3","componentType":5126,"count":109,"bufferView":19,"byteOffset":92684},{"type":"VEC4","componentType":5126,"count":109,"bufferView":19,"byteOffset":93992},{"type":"VEC3","componentType":5126,"count":109,"bufferView":19,"byteOffset":95736},{"type":"VEC3","componentType":5126,"count":109,"bufferView":19,"byteOffset":97044},{"type":"VEC4","componentType":5126,"count":109,"bufferView":19,"byteOffset":98352},{"type":"VEC3","componentType":5126,"count":109,"bufferView":19,"byteOffset":100096},{"type":"VEC3","componentType":5126,"count":109,"bufferView":19,"byteOffset":101404},{"type":"VEC4","componentType":5126,"count":109,"bufferView":19,"byteOffset":102712},{"type":"VEC3","componentType":5126,"count":109,"bufferView":19,"byteOffset":104456},{"type":"VEC3","componentType":5126,"count":109,"bufferView":19,"byteOffset":105764},{"type":"VEC4","componentType":5126,"count":109,"bufferView":19,"byteOffset":107072},{"type":"VEC3","componentType":5126,"count":109,"bufferView":19,"byteOffset":108816},{"type":"VEC3","componentType":5126,"count":109,"bufferView":19,"byteOffset":110124},{"type":"VEC4","componentType":5126,"count":109,"bufferView":19,"byteOffset":111432},{"type":"VEC3","componentType":5126,"count":109,"bufferView":19,"byteOffset":113176},{"type":"VEC3","componentType":5126,"count":109,"bufferView":19,"byteOffset":114484},{"type":"VEC4","componentType":5126,"count":109,"bufferView":19,"byteOffset":115792},{"type":"VEC3","componentType":5126,"count":109,"bufferView":19,"byteOffset":117536},{"type":"VEC3","componentType":5126,"count":109,"bufferView":19,"byteOffset":118844},{"type":"VEC4","componentType":5126,"count":109,"bufferView":19,"byteOffset":120152},{"type":"VEC3","componentType":5126,"count":109,"bufferView":19,"byteOffset":121896},{"type":"VEC3","componentType":5126,"count":109,"bufferView":19,"byteOffset":123204},{"type":"VEC4","componentType":5126,"count":109,"bufferView":19,"byteOffset":124512},{"type":"VEC3","componentType":5126,"count":109,"bufferView":19,"byteOffset":126256},{"type":"VEC3","componentType":5126,"count":109,"bufferView":19,"byteOffset":127564},{"type":"VEC4","componentType":5126,"count":109,"bufferView":19,"byteOffset":128872},{"type":"VEC3","componentType":5126,"count":109,"bufferView":19,"byteOffset":130616},{"type":"VEC3","componentType":5126,"count":109,"bufferView":19,"byteOffset":131924},{"type":"VEC4","componentType":5126,"count":109,"bufferView":19,"byteOffset":133232},{"type":"VEC3","componentType":5126,"count":109,"bufferView":19,"byteOffset":134976},{"type":"VEC3","componentType":5126,"count":109,"bufferView":19,"byteOffset":136284},{"type":"VEC4","componentType":5126,"count":109,"bufferView":19,"byteOffset":137592},{"type":"VEC3","componentType":5126,"count":109,"bufferView":19,"byteOffset":139336},{"type":"VEC3","componentType":5126,"count":109,"bufferView":19,"byteOffset":140644},{"type":"VEC4","componentType":5126,"count":109,"bufferView":19,"byteOffset":141952},{"type":"VEC3","componentType":5126,"count":109,"bufferView":19,"byteOffset":143696},{"type":"VEC3","componentType":5126,"count":109,"bufferView":19,"byteOffset":145004},{"type":"VEC4","componentType":5126,"count":109,"bufferView":19,"byteOffset":146312},{"type":"VEC3","componentType":5126,"count":109,"bufferView":19,"byteOffset":148056},{"type":"VEC3","componentType":5126,"count":109,"bufferView":19,"byteOffset":149364},{"type":"VEC4","componentType":5126,"count":109,"bufferView":19,"byteOffset":150672},{"type":"VEC3","componentType":5126,"count":109,"bufferView":19,"byteOffset":152416},{"type":"VEC3","componentType":5126,"count":109,"bufferView":19,"byteOffset":153724},{"type":"VEC4","componentType":5126,"count":109,"bufferView":19,"byteOffset":155032},{"type":"VEC3","componentType":5126,"count":109,"bufferView":19,"byteOffset":156776}],"bufferViews":[{"buffer":0,"byteOffset":0,"byteLength":26368,"byteStride":32,"target":34962},{"buffer":0,"byteOffset":26368,"byteLength":2005252,"target":34963},{"buffer":0,"byteOffset":2031620,"byteLength":28224,"byteStride":32,"target":34962},{"buffer":0,"byteOffset":2059844,"byteLength":28224,"byteStride":32,"target":34962},{"buffer":0,"byteOffset":2088068,"byteLength":28224,"byteStride":32,"target":34962},{"buffer":0,"byteOffset":2116292,"byteLength":28224,"byteStride":32,"target":34962},{"buffer":0,"byteOffset":2144516,"byteLength":28224,"byteStride":32,"target":34962},{"buffer":0,"byteOffset":2172740,"byteLength":28224,"byteStride":32,"target":34962},{"buffer":0,"byteOffset":2200964,"byteLength":28224,"byteStride":32,"target":34962},{"buffer":0,"byteOffset":2229188,"byteLength":2647904,"byteStride":32,"target":34962},{"buffer":0,"byteOffset":4877092,"byteLength":1985928,"byteStride":24,"target":34962},{"buffer":0,"byteOffset":6863020,"byteLength":256424,"byteStride":56,"target":34962},{"buffer":0,"byteOffset":7119444,"byteLength":2304},{"buffer":0,"byteOffset":7121748,"byteLength":608720,"byteStride":56,"target":34962},{"buffer":0,"byteOffset":7730468,"byteLength":76608,"byteStride":56,"target":34962},{"buffer":0,"byteOffset":7807076,"byteLength":60704,"byteStride":56,"target":34962},{"buffer":0,"byteOffset":7867780,"byteLength":60256,"byteStride":56,"target":34962},{"buffer":0,"byteOffset":7928036,"byteLength":16240,"byteStride":56,"target":34962},{"buffer":0,"byteOffset":7944276,"byteLength":829304,"byteStride":56,"target":34962},{"buffer":0,"byteOffset":8773580,"byteLength":158084}],"samplers":[{"wrapS":10497,"wrapT":10497}],"textures":[{"source":1,"sampler":0},{"source":0,"sampler":0},{"source":2,"sampler":0},{"source":4,"sampler":0},{"source":3,"sampler":0},{"source":5,"sampler":0},{"source":7,"sampler":0},{"source":6,"sampler":0},{"source":8,"sampler":0},{"source":10,"sampler":0},{"source":9,"sampler":0},{"source":11,"sampler":0},{"source":13,"sampler":0},{"source":12,"sampler":0},{"source":14,"sampler":0},{"source":16,"sampler":0},{"source":15,"sampler":0},{"source":17,"sampler":0}],"images":[{"name":"dagger_dagger_Normal","mimeType":"image/jpeg","uri":"normal_1.jpg"},{"name":"dagger_dagger_BaseColor","mimeType":"image/jpeg","uri":"baseColor_1.jpg"},{"name":"dagger_dagger_Metallic-dagger_dagger_Roughness","mimeType":"image/png","uri":"metallicRoughness_1.png"},{"name":"heart_wire_224086086_Normal","mimeType":"image/jpeg","uri":"normal_2.jpg"},{"name":"heart_wire_224086086_BaseColor","mimeType":"image/jpeg","uri":"baseColor_2.jpg"},{"name":"heart_wire_224086086_Roughness","mimeType":"image/png","uri":"metallicRoughness_2.png"},{"name":"character_hands_Normal","mimeType":"image/jpeg","uri":"normal_3.jpg"},{"name":"character_hands_BaseColor","mimeType":"image/jpeg","uri":"baseColor_3.jpg"},{"name":"character_hands_Roughness","mimeType":"image/png","uri":"metallicRoughness_3.png"},{"name":"mask_gold_Normal","mimeType":"image/jpeg","uri":"normal_4.jpg"},{"name":"mask_gold_BaseColor","mimeType":"image/jpeg","uri":"baseColor_4.jpg"},{"name":"mask_gold_Metallic-mask_gold_Roughness","mimeType":"image/png","uri":"metallicRoughness_4.png"},{"name":"character_armor_Normal","mimeType":"image/jpeg","uri":"normal_5.jpg"},{"name":"character_armor_BaseColor","mimeType":"image/jpeg","uri":"baseColor_5.jpg"},{"name":"character_armor_Metallic-character_armor_Roughness","mimeType":"image/png","uri":"metallicRoughness_5.png"},{"name":"robe lp _robe_Normal","mimeType":"image/jpeg","uri":"normal_6.jpg"},{"name":"robe lp _robe_BaseColor","mimeType":"image/jpeg","uri":"baseColor_6.jpg"},{"name":"robe lp _robe_Roughness","mimeType":"image/png","uri":"metallicRoughness_6.png"}],"buffers":[{"uri":"bhg.bin","byteLength":8931664}],"materials":[{"name":"dagger","doubleSided":true,"pbrMetallicRoughness":{"baseColorTexture":{"index":0},"metallicRoughnessTexture":{"index":2}},"normalTexture":{"index":1}},{"name":"wire_224086086","doubleSided":true,"pbrMetallicRoughness":{"metallicFactor":0,"baseColorTexture":{"index":3},"metallicRoughnessTexture":{"index":5}},"normalTexture":{"index":4}},{"name":"Material.001","doubleSided":true,"pbrMetallicRoughness":{"metallicFactor":0,"baseColorTexture":{"index":6},"metallicRoughnessTexture":{"index":8}},"normalTexture":{"index":7}},{"name":"gold","doubleSided":true,"pbrMetallicRoughness":{"baseColorTexture":{"index":9},"metallicRoughnessTexture":{"index":11}},"normalTexture":{"index":10}},{"name":"human.body","doubleSided":true,"pbrMetallicRoughness":{"baseColorFactor":[0.5196498036384583,0.42218339443206787,0.3530280292034149,1],"roughnessFactor":0.2909091114997864,"metallicFactor":0}},{"name":"human.HighPolyEyes","doubleSided":true,"pbrMetallicRoughness":{"baseColorFactor":[0,0,0,1],"roughnessFactor":0,"metallicFactor":0}},{"name":"armor","doubleSided":true,"pbrMetallicRoughness":{"baseColorTexture":{"index":12},"metallicRoughnessTexture":{"index":14}},"normalTexture":{"index":13}},{"name":"robe","doubleSided":true,"pbrMetallicRoughness":{"metallicFactor":0,"baseColorTexture":{"index":15},"metallicRoughnessTexture":{"index":17}},"normalTexture":{"index":16}}],"meshes":[{"name":"meshId0_name","primitives":[{"attributes":{"POSITION":0,"NORMAL":1,"TEXCOORD_0":2},"mode":4,"material":0,"indices":3}]},{"name":"meshId0_name.001","primitives":[{"attributes":{"POSITION":13,"NORMAL":14,"TEXCOORD_0":15},"mode":4,"material":0,"indices":4}]},{"name":"meshId0_name.002","primitives":[{"attributes":{"POSITION":16,"NORMAL":17,"TEXCOORD_0":18},"mode":4,"material":0,"indices":4}]},{"name":"meshId0_name.003","primitives":[{"attributes":{"POSITION":19,"NORMAL":20,"TEXCOORD_0":21},"mode":4,"material":0,"indices":4}]},{"name":"meshId0_name.004","primitives":[{"attributes":{"POSITION":22,"NORMAL":23,"TEXCOORD_0":24},"mode":4,"material":0,"indices":4}]},{"name":"meshId0_name.005","primitives":[{"attributes":{"POSITION":25,"NORMAL":26,"TEXCOORD_0":27},"mode":4,"material":0,"indices":4}]},{"name":"meshId0_name.007","primitives":[{"attributes":{"POSITION":28,"NORMAL":29,"TEXCOORD_0":30},"mode":4,"material":0,"indices":4}]},{"name":"meshId0_name.006","primitives":[{"attributes":{"POSITION":31,"NORMAL":32,"TEXCOORD_0":33},"mode":4,"material":0,"indices":4}]},{"name":"7f3661fc72954e518c51143c9394dfa5","extras":{"targetNames":["heart beat"]},"primitives":[{"attributes":{"POSITION":34,"NORMAL":35,"TEXCOORD_0":36},"mode":4,"material":1,"indices":5,"targets":[{"POSITION":37,"NORMAL":38}]}],"weights":[0]},{"name":"humanBodyMesh","primitives":[{"attributes":{"POSITION":39,"NORMAL":40,"TEXCOORD_0":41,"JOINTS_0":42,"WEIGHTS_0":43},"mode":4,"material":2,"indices":6}]},{"name":"humanBodyMesh.002","primitives":[{"attributes":{"POSITION":45,"NORMAL":46,"TEXCOORD_0":47,"JOINTS_0":48,"WEIGHTS_0":49},"mode":4,"material":3,"indices":7}]},{"name":"humanBodyMesh.003","primitives":[{"attributes":{"POSITION":50,"NORMAL":51,"TEXCOORD_0":52,"JOINTS_0":53,"WEIGHTS_0":54},"mode":4,"material":4,"indices":8}]},{"name":"humanBodyMesh.007","primitives":[{"attributes":{"POSITION":55,"NORMAL":56,"TEXCOORD_0":57,"JOINTS_0":58,"WEIGHTS_0":59},"mode":4,"material":3,"indices":9}]},{"name":"human.HighPolyEyesMesh","primitives":[{"attributes":{"POSITION":60,"NORMAL":61,"TEXCOORD_0":62,"JOINTS_0":63,"WEIGHTS_0":64},"mode":4,"material":5,"indices":10}]},{"name":"Mesh_0623.001","primitives":[{"attributes":{"POSITION":65,"NORMAL":66,"TEXCOORD_0":67,"JOINTS_0":68,"WEIGHTS_0":69},"mode":4,"material":6,"indices":11}]},{"name":"robe unwraped","primitives":[{"attributes":{"POSITION":70,"NORMAL":71,"TEXCOORD_0":72,"JOINTS_0":73,"WEIGHTS_0":74},"mode":4,"material":7,"indices":12}]}],"nodes":[{"name":"dagger.001","translation":[0.08431489020586014,-0.0586087703704834,-0.04117855057120323],"rotation":[0.7463430762290955,0.24438007175922394,-0.5225038528442383,0.33202436566352844],"scale":[-0.1539212465286255,-0.15392126142978668,-0.1539212465286255],"mesh":0},{"name":"dagger.002","translation":[-0.11125191301107407,-0.05595216155052185,0.0029433369636535645],"rotation":[0.6189216375350952,0.7691640853881836,-0.12467262148857117,0.09889088571071625],"scale":[-0.10875141620635986,-0.10875140875577927,-0.10875140875577927],"mesh":1},{"name":"dagger.003","translation":[-0.09388218820095062,0.014103800058364868,-0.019138887524604797],"rotation":[0.8225106596946716,0.551675021648407,0.084051214158535,0.10984709113836288],"scale":[-0.10875142365694046,-0.10875140875577927,-0.10875141620635986],"mesh":2},{"name":"dagger.004","translation":[0.07598944753408432,0.05356743931770325,0.0027315914630889893],"rotation":[0.9248170852661133,-0.3425917625427246,-0.1502649337053299,0.06902807950973511],"scale":[-0.10875141620635986,-0.10875141620635986,-0.10875141620635986],"mesh":3},{"name":"dagger.005","translation":[0.09865754097700119,-0.00017789006233215332,0.03020600974559784],"rotation":[-0.7865586876869202,0.6114652752876282,-0.021967753767967224,0.08338526636362076],"scale":[-0.10875140875577927,-0.10875141620635986,-0.10875141620635986],"mesh":4},{"name":"dagger.006","translation":[-0.10516189783811569,-0.01720401644706726,0.032652467489242554],"rotation":[-0.7283232808113098,-0.6615034341812134,0.17818348109722137,0.014462663792073727],"scale":[-0.10875141620635986,-0.10875140875577927,-0.10875140875577927],"mesh":5},{"name":"dagger","translation":[-0.0649809017777443,0.0448644757270813,0.039064228534698486],"rotation":[-0.9290881156921387,-0.29660987854003906,-0.14934687316417694,0.1628296822309494],"scale":[-0.10875141620635986,-0.10875140875577927,-0.10875143110752106],"mesh":6},{"name":"dagger.007","translation":[0.09762423485517502,-0.049393415451049805,-0.007917717099189758],"rotation":[0.5934337377548218,-0.7813782691955566,-0.029925566166639328,0.19075864553451538],"scale":[-0.10875141620635986,-0.10875140875577927,-0.10875141620635986],"mesh":7},{"name":"heart","translation":[0.017448892816901207,0.35195353627204895,0.1814093440771103],"mesh":8,"children":[1,2,3,4,5,6,7]},{"name":"index_03_l","translation":[3.117276392572421e-8,0.019144926220178604,-2.5237635981056883e-8],"rotation":[0.4282356798648834,0.007643154822289944,0.0189463309943676,0.9034361243247986]},{"name":"index_02_l","translation":[3.5240713458506434e-8,0.021466122940182686,-1.0221265256404877e-7],"rotation":[0.46111658215522766,0.004740899428725243,0.00371566042304039,0.8873191475868225],"children":[9]},{"name":"index_01_l","translation":[-0.008649530820548534,0.08946970850229263,0.007663407828658819],"rotation":[0.5522510409355164,0.3382514417171478,-0.25426167249679565,0.7183006405830383],"children":[10]},{"name":"middle_03_l","translation":[8.118522742961432e-9,0.023197589442133904,4.566421551999156e-8],"rotation":[0.45066946744918823,-0.002539160894230008,-0.006106940098106861,0.8926663994789124]},{"name":"middle_02_l","translation":[-6.000670538242048e-8,0.028169892728328705,-1.0603528011188246e-7],"rotation":[0.5678141117095947,0.020718000829219818,0.03055446222424507,0.8223286271095276],"children":[12]},{"name":"middle_01_l","translation":[0.0028408311773091555,0.0845172107219696,-0.009416651912033558],"rotation":[0.5228185057640076,0.2804630696773529,-0.32971590757369995,0.7343628406524658],"children":[13]},{"name":"pinky_03_l","translation":[8.020047914669703e-8,0.012996112927794456,-9.661452082809774e-8],"rotation":[0.32965174317359924,-0.004533143248409033,-0.012688109651207924,0.9440065622329712]},{"name":"pinky_02_l","translation":[-8.483166169526157e-8,0.017776167020201683,6.245711858809955e-8],"rotation":[0.5714665055274963,0.014276562258601189,0.02280506119132042,0.8201842308044434],"children":[15]},{"name":"pinky_01_l","translation":[0.028131796047091484,0.06925437599420547,-0.02616281807422638],"rotation":[0.3351733386516571,0.22706232964992523,-0.3126707971096039,0.8592662811279297],"children":[16]},{"name":"ring_03_l","translation":[-2.300270196542442e-8,0.02067345194518566,-9.659203925593829e-8],"rotation":[0.4252115786075592,-0.008562971837818623,-0.021318642422556877,0.9048023819923401]},{"name":"ring_02_l","translation":[-2.52515679477483e-8,0.024790234863758087,-1.7739864688337548e-8],"rotation":[0.5804163217544556,0.02320127747952938,0.03520386293530464,0.8132277131080627],"children":[18]},{"name":"ring_01_l","translation":[0.014454429037868977,0.07828212529420853,-0.019770953804254532],"rotation":[0.44994914531707764,0.25912147760391235,-0.35459545254707336,0.777601420879364],"children":[19]},{"name":"thumb_03_l","translation":[-5.1416783719560044e-8,0.030036358162760735,7.727205542096272e-8],"rotation":[0.22433200478553772,-0.03633452579379082,-0.07090165466070175,0.9712507128715515]},{"name":"thumb_02_l","translation":[6.309421962669148e-8,0.0257839635014534,5.704288241759059e-8],"rotation":[0.207994744181633,-0.0870664194226265,-0.22769351303577423,0.9472662210464478],"children":[21]},{"name":"thumb_01_l","translation":[-0.011989177204668522,0.03283759951591492,0.012250298634171486],"rotation":[0.32621750235557556,0.7171050906181335,0.32475632429122925,0.5233314037322998],"children":[22]},{"name":"hand_l","translation":[-1.2886191669281288e-8,0.1973990648984909,-1.0888352619531361e-7],"rotation":[0.03654858469963074,0.451166033744812,-0.03868946433067322,0.890851616859436],"children":[11,14,17,20,23]},{"name":"lowerarm_l","translation":[-0.06403744965791702,0.39306899905204773,0.2232871949672699],"rotation":[-0.6433001160621643,0.14628258347511292,0.28189030289649963,0.6966378092765808],"children":[24]},{"name":"index_03_r","translation":[-7.149279390716856e-9,0.01914491131901741,3.0706537312852333e-10],"rotation":[0.2310406118631363,-0.008252760395407677,-0.06843073666095734,0.970499575138092]},{"name":"index_02_r","translation":[-7.450580596923828e-9,0.02146608754992485,-9.313225746154785e-8],"rotation":[0.2588039040565491,0.007803706452250481,-0.08468753099441528,0.9621785879135132],"children":[26]},{"name":"index_01_r","translation":[0.010486955754458904,0.08776623010635376,0.00791078805923462],"rotation":[0.3089117109775543,-0.44746723771095276,0.1457812786102295,0.8264954090118408],"children":[27]},{"name":"middle_03_r","translation":[-7.504817745029868e-8,0.023197602480649948,1.3697145639923747e-8],"rotation":[0.22167900204658508,-0.041133493185043335,-0.006499176844954491,0.9742300510406494]},{"name":"middle_02_r","translation":[4.281904963931993e-8,0.028169889003038406,-7.436031523866404e-8],"rotation":[0.1258610635995865,-0.000324941793223843,0.02158200740814209,0.991813063621521],"children":[29]},{"name":"middle_01_r","translation":[-0.002840811852365732,0.08451715111732483,-0.00941662210971117],"rotation":[0.35109034180641174,-0.323236346244812,0.20755040645599365,0.8539184331893921],"children":[30]},{"name":"pinky_03_r","translation":[-5.4023281848003535e-8,0.012996076606214046,-1.1362486418420303e-7],"rotation":[-0.00821951124817133,-0.000013978517017676495,0.013473653234541416,0.9998754858970642]},{"name":"pinky_02_r","translation":[9.076283902231808e-8,0.017776167020201683,9.816127999329183e-8],"rotation":[0.08775672316551208,-0.001040450413711369,-0.02688531018793583,0.9957785606384277],"children":[32]},{"name":"pinky_01_r","translation":[-0.02813178114593029,0.06925435364246368,-0.02616278827190399],"rotation":[0.28587958216667175,-0.2194218635559082,0.3087814450263977,0.8802164196968079],"children":[33]},{"name":"ring_03_r","translation":[7.192601625405359e-9,0.020673494786024094,-8.882210522642708e-8],"rotation":[0.23083698749542236,0.009198338724672794,-0.041970446705818176,0.9720433354377747]},{"name":"ring_02_r","translation":[4.802235764600482e-8,0.024790266528725624,1.6763326726731975e-8],"rotation":[0.20770809054374695,-0.001060559181496501,-0.028699036687612534,0.9777693152427673],"children":[35]},{"name":"ring_01_r","translation":[-0.014454402029514313,0.07828210294246674,-0.019770901650190353],"rotation":[0.260606586933136,-0.31263381242752075,0.23974694311618805,0.8813998699188232],"children":[36]},{"name":"thumb_03_r","translation":[5.5347044281006674e-8,0.03003634326159954,-6.469767832584239e-9],"rotation":[0.1411001980304718,0.004713491536676884,0.033059921115636826,0.9894319176673889]},{"name":"thumb_02_r","translation":[-7.305651905653576e-8,0.025783980265259743,1.3423589351191367e-8],"rotation":[0.2921534478664398,-0.01910482533276081,0.15711504220962524,0.9431840777397156],"children":[38]},{"name":"thumb_01_r","translation":[0.011989147402346134,0.03283759579062462,0.012250316329300404],"rotation":[0.2881442606449127,-0.733710765838623,-0.4296375811100006,0.44051438570022583],"children":[39]},{"name":"hand_r","translation":[2.961022360636889e-8,0.19739902019500732,-1.5935641783926258e-7],"rotation":[0.0032658372074365616,-0.342073917388916,0.15138626098632812,0.9273926019668579],"children":[28,31,34,37,40]},{"name":"lowerarm_r","translation":[-0.08099666237831116,0.4736953675746918,-0.17946799099445343],"rotation":[0.611164391040802,-0.6444878578186035,-0.34555965662002563,0.302823543548584],"children":[41]},{"name":"head","translation":[-2.5577673312682236e-9,0.7309018969535828,1.0959506518128196e-16],"rotation":[1.417627348843098e-9,3.421830152561256e-9,-0.030076080933213234,0.9995477199554443]},{"name":"body","translation":[2.317720901099773e-16,-0.24954572319984436,0.003669017693027854],"rotation":[-0.008874570950865746,0.7070510983467102,-0.008874534629285336,0.7070510983467102],"children":[25,42,43]},{"name":"human.Body","mesh":9,"skin":0},{"name":"human.Body.002","mesh":10,"skin":0},{"name":"human.Body.003","mesh":11,"skin":0},{"name":"human.Body.006","mesh":12,"skin":0},{"name":"human.HighPolyEyes","mesh":13,"skin":0},{"name":"Mesh_0623.001","mesh":14,"skin":0},{"name":"robe unwraped","mesh":15,"skin":0},{"name":"SOL","children":[45,46,47,48,49,50,51,44]},{"name":"Camera","translation":[0.026369955390691757,0.4434204697608948,1.167797327041626],"rotation":[0.6742987036705017,0.0025767527986317873,-0.0023538253735750914,0.7384504675865173]}],"skins":[{"name":"SOL","inverseBindMatrices":44,"joints":[44,25,24,11,10,9,14,13,12,17,16,15,20,19,18,23,22,21,42,41,28,27,26,31,30,29,34,33,32,37,36,35,40,39,38,43]}],"animations":[{"name":"KeyAction","samplers":[{"input":75,"output":76,"interpolation":"LINEAR"}],"channels":[{"sampler":0,"target":{"node":8,"path":"weights"}}]},{"name":"humanAction","samplers":[{"input":77,"output":78,"interpolation":"LINEAR"},{"input":77,"output":79,"interpolation":"LINEAR"},{"input":77,"output":80,"interpolation":"LINEAR"},{"input":77,"output":81,"interpolation":"LINEAR"},{"input":77,"output":82,"interpolation":"LINEAR"},{"input":77,"output":83,"interpolation":"LINEAR"},{"input":77,"output":84,"interpolation":"LINEAR"},{"input":77,"output":85,"interpolation":"LINEAR"},{"input":77,"output":86,"interpolation":"LINEAR"},{"input":77,"output":87,"interpolation":"LINEAR"},{"input":77,"output":88,"interpolation":"LINEAR"},{"input":77,"output":89,"interpolation":"LINEAR"},{"input":77,"output":90,"interpolation":"LINEAR"},{"input":77,"output":91,"interpolation":"LINEAR"},{"input":77,"output":92,"interpolation":"LINEAR"},{"input":77,"output":93,"interpolation":"LINEAR"},{"input":77,"output":94,"interpolation":"LINEAR"},{"input":77,"output":95,"interpolation":"LINEAR"},{"input":77,"output":96,"interpolation":"LINEAR"},{"input":77,"output":97,"interpolation":"LINEAR"},{"input":77,"output":98,"interpolation":"LINEAR"},{"input":77,"output":99,"interpolation":"LINEAR"},{"input":77,"output":100,"interpolation":"LINEAR"},{"input":77,"output":101,"interpolation":"LINEAR"},{"input":77,"output":102,"interpolation":"LINEAR"},{"input":77,"output":103,"interpolation":"LINEAR"},{"input":77,"output":104,"interpolation":"LINEAR"},{"input":77,"output":105,"interpolation":"LINEAR"},{"input":77,"output":106,"interpolation":"LINEAR"},{"input":77,"output":107,"interpolation":"LINEAR"},{"input":77,"output":108,"interpolation":"LINEAR"},{"input":77,"output":109,"interpolation":"LINEAR"},{"input":77,"output":110,"interpolation":"LINEAR"},{"input":77,"output":111,"interpolation":"LINEAR"},{"input":77,"output":112,"interpolation":"LINEAR"},{"input":77,"output":113,"interpolation":"LINEAR"},{"input":77,"output":114,"interpolation":"LINEAR"},{"input":77,"output":115,"interpolation":"LINEAR"},{"input":77,"output":116,"interpolation":"LINEAR"},{"input":77,"output":117,"interpolation":"LINEAR"},{"input":77,"output":118,"interpolation":"LINEAR"},{"input":77,"output":119,"interpolation":"LINEAR"},{"input":77,"output":120,"interpolation":"LINEAR"},{"input":77,"output":121,"interpolation":"LINEAR"},{"input":77,"output":122,"interpolation":"LINEAR"},{"input":77,"output":123,"interpolation":"LINEAR"},{"input":77,"output":124,"interpolation":"LINEAR"},{"input":77,"output":125,"interpolation":"LINEAR"},{"input":77,"output":126,"interpolation":"LINEAR"},{"input":77,"output":127,"interpolation":"LINEAR"},{"input":77,"output":128,"interpolation":"LINEAR"},{"input":77,"output":129,"interpolation":"LINEAR"},{"input":77,"output":130,"interpolation":"LINEAR"},{"input":77,"output":131,"interpolation":"LINEAR"},{"input":77,"output":132,"interpolation":"LINEAR"},{"input":77,"output":133,"interpolation":"LINEAR"},{"input":77,"output":134,"interpolation":"LINEAR"},{"input":77,"output":135,"interpolation":"LINEAR"},{"input":77,"output":136,"interpolation":"LINEAR"},{"input":77,"output":137,"interpolation":"LINEAR"},{"input":77,"output":138,"interpolation":"LINEAR"},{"input":77,"output":139,"interpolation":"LINEAR"},{"input":77,"output":140,"interpolation":"LINEAR"},{"input":77,"output":141,"interpolation":"LINEAR"},{"input":77,"output":142,"interpolation":"LINEAR"},{"input":77,"output":143,"interpolation":"LINEAR"},{"input":77,"output":144,"interpolation":"LINEAR"},{"input":77,"output":145,"interpolation":"LINEAR"},{"input":77,"output":146,"interpolation":"LINEAR"},{"input":77,"output":147,"interpolation":"LINEAR"},{"input":77,"output":148,"interpolation":"LINEAR"},{"input":77,"output":149,"interpolation":"LINEAR"},{"input":77,"output":150,"interpolation":"LINEAR"},{"input":77,"output":151,"interpolation":"LINEAR"},{"input":77,"output":152,"interpolation":"LINEAR"},{"input":77,"output":153,"interpolation":"LINEAR"},{"input":77,"output":154,"interpolation":"LINEAR"},{"input":77,"output":155,"interpolation":"LINEAR"},{"input":77,"output":156,"interpolation":"LINEAR"},{"input":77,"output":157,"interpolation":"LINEAR"},{"input":77,"output":158,"interpolation":"LINEAR"},{"input":77,"output":159,"interpolation":"LINEAR"},{"input":77,"output":160,"interpolation":"LINEAR"},{"input":77,"output":161,"interpolation":"LINEAR"},{"input":77,"output":162,"interpolation":"LINEAR"},{"input":77,"output":163,"interpolation":"LINEAR"},{"input":77,"output":164,"interpolation":"LINEAR"},{"input":77,"output":165,"interpolation":"LINEAR"},{"input":77,"output":166,"interpolation":"LINEAR"},{"input":77,"output":167,"interpolation":"LINEAR"},{"input":77,"output":168,"interpolation":"LINEAR"},{"input":77,"output":169,"interpolation":"LINEAR"},{"input":77,"output":170,"interpolation":"LINEAR"},{"input":77,"output":171,"interpolation":"LINEAR"},{"input":77,"output":172,"interpolation":"LINEAR"},{"input":77,"output":173,"interpolation":"LINEAR"},{"input":77,"output":174,"interpolation":"LINEAR"},{"input":77,"output":175,"interpolation":"LINEAR"},{"input":77,"output":176,"interpolation":"LINEAR"},{"input":77,"output":177,"interpolation":"LINEAR"},{"input":77,"output":178,"interpolation":"LINEAR"},{"input":77,"output":179,"interpolation":"LINEAR"},{"input":77,"output":180,"interpolation":"LINEAR"},{"input":77,"output":181,"interpolation":"LINEAR"},{"input":77,"output":182,"interpolation":"LINEAR"},{"input":77,"output":183,"interpolation":"LINEAR"},{"input":77,"output":184,"interpolation":"LINEAR"},{"input":77,"output":185,"interpolation":"LINEAR"}],"channels":[{"sampler":0,"target":{"node":44,"path":"translation"}},{"sampler":1,"target":{"node":44,"path":"rotation"}},{"sampler":2,"target":{"node":44,"path":"scale"}},{"sampler":3,"target":{"node":25,"path":"translation"}},{"sampler":4,"target":{"node":25,"path":"rotation"}},{"sampler":5,"target":{"node":25,"path":"scale"}},{"sampler":6,"target":{"node":24,"path":"translation"}},{"sampler":7,"target":{"node":24,"path":"rotation"}},{"sampler":8,"target":{"node":24,"path":"scale"}},{"sampler":9,"target":{"node":11,"path":"translation"}},{"sampler":10,"target":{"node":11,"path":"rotation"}},{"sampler":11,"target":{"node":11,"path":"scale"}},{"sampler":12,"target":{"node":10,"path":"translation"}},{"sampler":13,"target":{"node":10,"path":"rotation"}},{"sampler":14,"target":{"node":10,"path":"scale"}},{"sampler":15,"target":{"node":9,"path":"translation"}},{"sampler":16,"target":{"node":9,"path":"rotation"}},{"sampler":17,"target":{"node":9,"path":"scale"}},{"sampler":18,"target":{"node":14,"path":"translation"}},{"sampler":19,"target":{"node":14,"path":"rotation"}},{"sampler":20,"target":{"node":14,"path":"scale"}},{"sampler":21,"target":{"node":13,"path":"translation"}},{"sampler":22,"target":{"node":13,"path":"rotation"}},{"sampler":23,"target":{"node":13,"path":"scale"}},{"sampler":24,"target":{"node":12,"path":"translation"}},{"sampler":25,"target":{"node":12,"path":"rotation"}},{"sampler":26,"target":{"node":12,"path":"scale"}},{"sampler":27,"target":{"node":17,"path":"translation"}},{"sampler":28,"target":{"node":17,"path":"rotation"}},{"sampler":29,"target":{"node":17,"path":"scale"}},{"sampler":30,"target":{"node":16,"path":"translation"}},{"sampler":31,"target":{"node":16,"path":"rotation"}},{"sampler":32,"target":{"node":16,"path":"scale"}},{"sampler":33,"target":{"node":15,"path":"translation"}},{"sampler":34,"target":{"node":15,"path":"rotation"}},{"sampler":35,"target":{"node":15,"path":"scale"}},{"sampler":36,"target":{"node":20,"path":"translation"}},{"sampler":37,"target":{"node":20,"path":"rotation"}},{"sampler":38,"target":{"node":20,"path":"scale"}},{"sampler":39,"target":{"node":19,"path":"translation"}},{"sampler":40,"target":{"node":19,"path":"rotation"}},{"sampler":41,"target":{"node":19,"path":"scale"}},{"sampler":42,"target":{"node":18,"path":"translation"}},{"sampler":43,"target":{"node":18,"path":"rotation"}},{"sampler":44,"target":{"node":18,"path":"scale"}},{"sampler":45,"target":{"node":23,"path":"translation"}},{"sampler":46,"target":{"node":23,"path":"rotation"}},{"sampler":47,"target":{"node":23,"path":"scale"}},{"sampler":48,"target":{"node":22,"path":"translation"}},{"sampler":49,"target":{"node":22,"path":"rotation"}},{"sampler":50,"target":{"node":22,"path":"scale"}},{"sampler":51,"target":{"node":21,"path":"translation"}},{"sampler":52,"target":{"node":21,"path":"rotation"}},{"sampler":53,"target":{"node":21,"path":"scale"}},{"sampler":54,"target":{"node":42,"path":"translation"}},{"sampler":55,"target":{"node":42,"path":"rotation"}},{"sampler":56,"target":{"node":42,"path":"scale"}},{"sampler":57,"target":{"node":41,"path":"translation"}},{"sampler":58,"target":{"node":41,"path":"rotation"}},{"sampler":59,"target":{"node":41,"path":"scale"}},{"sampler":60,"target":{"node":28,"path":"translation"}},{"sampler":61,"target":{"node":28,"path":"rotation"}},{"sampler":62,"target":{"node":28,"path":"scale"}},{"sampler":63,"target":{"node":27,"path":"translation"}},{"sampler":64,"target":{"node":27,"path":"rotation"}},{"sampler":65,"target":{"node":27,"path":"scale"}},{"sampler":66,"target":{"node":26,"path":"translation"}},{"sampler":67,"target":{"node":26,"path":"rotation"}},{"sampler":68,"target":{"node":26,"path":"scale"}},{"sampler":69,"target":{"node":31,"path":"translation"}},{"sampler":70,"target":{"node":31,"path":"rotation"}},{"sampler":71,"target":{"node":31,"path":"scale"}},{"sampler":72,"target":{"node":30,"path":"translation"}},{"sampler":73,"target":{"node":30,"path":"rotation"}},{"sampler":74,"target":{"node":30,"path":"scale"}},{"sampler":75,"target":{"node":29,"path":"translation"}},{"sampler":76,"target":{"node":29,"path":"rotation"}},{"sampler":77,"target":{"node":29,"path":"scale"}},{"sampler":78,"target":{"node":34,"path":"translation"}},{"sampler":79,"target":{"node":34,"path":"rotation"}},{"sampler":80,"target":{"node":34,"path":"scale"}},{"sampler":81,"target":{"node":33,"path":"translation"}},{"sampler":82,"target":{"node":33,"path":"rotation"}},{"sampler":83,"target":{"node":33,"path":"scale"}},{"sampler":84,"target":{"node":32,"path":"translation"}},{"sampler":85,"target":{"node":32,"path":"rotation"}},{"sampler":86,"target":{"node":32,"path":"scale"}},{"sampler":87,"target":{"node":37,"path":"translation"}},{"sampler":88,"target":{"node":37,"path":"rotation"}},{"sampler":89,"target":{"node":37,"path":"scale"}},{"sampler":90,"target":{"node":36,"path":"translation"}},{"sampler":91,"target":{"node":36,"path":"rotation"}},{"sampler":92,"target":{"node":36,"path":"scale"}},{"sampler":93,"target":{"node":35,"path":"translation"}},{"sampler":94,"target":{"node":35,"path":"rotation"}},{"sampler":95,"target":{"node":35,"path":"scale"}},{"sampler":96,"target":{"node":40,"path":"translation"}},{"sampler":97,"target":{"node":40,"path":"rotation"}},{"sampler":98,"target":{"node":40,"path":"scale"}},{"sampler":99,"target":{"node":39,"path":"translation"}},{"sampler":100,"target":{"node":39,"path":"rotation"}},{"sampler":101,"target":{"node":39,"path":"scale"}},{"sampler":102,"target":{"node":38,"path":"translation"}},{"sampler":103,"target":{"node":38,"path":"rotation"}},{"sampler":104,"target":{"node":38,"path":"scale"}},{"sampler":105,"target":{"node":43,"path":"translation"}},{"sampler":106,"target":{"node":43,"path":"rotation"}},{"sampler":107,"target":{"node":43,"path":"scale"}}]}],"scenes":[{"name":"Scene","nodes":[0,8,52,53]}],"scene":0}